<svg width="400" height="400" xmlns="http://www.w3.org/2000/svg">
 <desc>Created with Fabric.js 3.6.2</desc>

 <g>
  <title>background</title>
  <rect fill="none" id="canvas_background" height="402" width="582" y="-1" x="-1"/>
 </g>
 <g>
  <title>Layer 1</title>
  <g id="svg_1" transform="matrix(9.22,0,0,9.22,200,200) ">
   <path fill="#ff0000" id="svg_2" stroke=" none" stroke-linecap="round" d="m0.76,-7.85a6,6 0 0 1 8.48,8.48l-8.53,8.54a1,1 0 0 1 -1.42,0l-8.53,-8.54a6,6 0 0 1 8.48,-8.48l0.76,0.75l0.76,-0.75zm7.07,7.07a4,4 0 1 0 -5.66,-5.66l-1.46,1.47a1,1 0 0 1 -1.42,0l-1.46,-1.47a4,4 0 1 0 -5.66,5.66l7.83,7.83l7.83,-7.83z"/>
  </g>
  <path id="svg_8" d="m198,274.45313c-1,-2 -85,-89 -85,-89.45313c0,0.45313 -4,-27.54687 -4,-29.54687c0,-2 18,-24 18,-24.45313c0,0.45313 23,-8.54687 23,-9c0,0.45313 22,1.45313 23,2.45313c1,1 23,20 23,19.54687c0,0.45313 3,7.45313 3,7c0,0.45313 14,-15.54687 14,-16c0,0.45313 38,-10.54687 38,-11c0,0.45313 24,1.45313 24,4.45313c0,3 8,18 8,20c0,2 7,14 6,18c-1,4 -2,22 -3,24c-1,2 -31,28 -31,27.54687" stroke-opacity="null" stroke-width="1.5" stroke="#ff0000" fill="#ff0000"/>
 </g>
</svg>